<svg xmlns="http://www.w3.org/2000/svg" viewBox="0 140 600 88">
  <defs>
    <clipPath id="a">
      <rect x="0" y="0" width="127" height="99"/>
    </clipPath>
    <clipPath id="b">
      <path d="M 90 30 L 126.199219 30 L 126.199219 74 L 90 74 Z" clip-rule="nonzero"/>
    </clipPath>
    <clipPath id="c">
      <rect x="0" y="0" width="46" height="99"/>
    </clipPath>
    <clipPath id="d">
      <path d="M 4 16 L 45.71875 16 L 45.71875 42 L 4 42 Z" clip-rule="nonzero"/>
    </clipPath>
  </defs>
  <g transform="translate(1,133)">
    <g clip-path="url(#a)">
      <g fill="#ffffff">
        <g transform="translate(0.521287,78.461772)">
          <path d="M 6.0625 -31.265625 L 41.78125 -47.6875 L 41.78125 -38.359375 L 18.65625 -28.15625 C 17.914062 -27.832031 17.195312 -27.585938 16.5 -27.421875 C 15.8125 -27.265625 15.175781 -27.132812 14.59375 -27.03125 C 13.90625 -26.925781 13.238281 -26.847656 12.59375 -26.796875 L 12.59375 -26.078125 C 13.238281 -26.023438 13.90625 -25.945312 14.59375 -25.84375 C 15.175781 -25.726562 15.8125 -25.578125 16.5 -25.390625 C 17.195312 -25.210938 17.914062 -24.960938 18.65625 -24.640625 L 41.78125 -14.28125 L 41.78125 -4.9375 L 6.0625 -21.296875 Z"/>
        </g>
      </g>
      <g clip-path="url(#b)">
        <g fill="#ffffff">
          <g transform="translate(84.249399,78.461772)">
            <path d="M 6.0625 -14.203125 L 29.1875 -24.484375 C 29.9375 -24.804688 30.664062 -25.054688 31.375 -25.234375 C 32.09375 -25.421875 32.742188 -25.566406 33.328125 -25.671875 C 33.972656 -25.734375 34.613281 -25.789062 35.25 -25.84375 L 35.25 -26.484375 C 34.613281 -26.535156 33.972656 -26.640625 33.328125 -26.796875 C 32.742188 -26.898438 32.09375 -27.046875 31.375 -27.234375 C 30.664062 -27.421875 29.9375 -27.675781 29.1875 -28 L 6.0625 -38.28125 L 6.0625 -47.609375 L 41.78125 -31.265625 L 41.78125 -21.296875 L 6.0625 -4.9375 Z"/>
          </g>
        </g>
      </g>
    </g>
  </g>
  <g transform="translate(45,128)">
    <g clip-path="url(#c)">
      <g clip-path="url(#d)">
        <g fill="#ffffff">
          <g transform="translate(0.51041,78.661882)">
            <path d="M 36.125 -61.8125 L 44.8125 -61.8125 L 38.4375 -37 L 25.765625 -37 Z M 3.828125 -37 L 14.203125 -61.8125 L 22.890625 -61.8125 L 16.515625 -37 Z"/>
          </g>
        </g>
      </g>
    </g>
  </g>
  <text x="137" y="211" font-family="'JetBrains Mono', monospace" font-size="70" font-weight="600" fill="#ffffff">drift <tspan letter-spacing="6">docs</tspan></text>
</svg>
