<svg xmlns="http://www.w3.org/2000/svg" xmlns:xlink="http://www.w3.org/1999/xlink" viewBox="0 120 380 120" preserveAspectRatio="xMidYMid meet" version="1.0"><defs><g/><clipPath id="d-3e2b32ae2d"><path d="M 90 30 L 126.199219 30 L 126.199219 74 L 90 74 Z M 90 30 " clip-rule="nonzero"/></clipPath><clipPath id="d-8ac7e1cc80"><rect x="0" width="127" y="0" height="99"/></clipPath><clipPath id="d-2945051ac7"><path d="M 4 16 L 45.71875 16 L 45.71875 42 L 4 42 Z M 4 16 " clip-rule="nonzero"/></clipPath><clipPath id="d-c7fcc11567"><rect x="0" width="46" y="0" height="99"/></clipPath><clipPath id="d-eb63ee0987"><rect x="0" width="211" y="0" height="99"/></clipPath></defs><g transform="matrix(1, 0, 0, 1, 1, 133)"><g clip-path="url(#d-8ac7e1cc80)"><g fill="#ffffff" fill-opacity="1"><g transform="translate(0.521287, 78.461772)"><g><path d="M 6.0625 -31.265625 L 41.78125 -47.6875 L 41.78125 -38.359375 L 18.65625 -28.15625 C 17.914062 -27.832031 17.195312 -27.585938 16.5 -27.421875 C 15.8125 -27.265625 15.175781 -27.132812 14.59375 -27.03125 C 13.90625 -26.925781 13.238281 -26.847656 12.59375 -26.796875 L 12.59375 -26.078125 C 13.238281 -26.023438 13.90625 -25.945312 14.59375 -25.84375 C 15.175781 -25.726562 15.8125 -25.578125 16.5 -25.390625 C 17.195312 -25.210938 17.914062 -24.960938 18.65625 -24.640625 L 41.78125 -14.28125 L 41.78125 -4.9375 L 6.0625 -21.296875 Z M 6.0625 -31.265625 "/></g></g></g><g fill="#ffffff" fill-opacity="1"><g transform="translate(42.385343, 78.461772)"><g/></g></g><g clip-path="url(#d-3e2b32ae2d)"><g fill="#ffffff" fill-opacity="1"><g transform="translate(84.249399, 78.461772)"><g><path d="M 6.0625 -14.203125 L 29.1875 -24.484375 C 29.9375 -24.804688 30.664062 -25.054688 31.375 -25.234375 C 32.09375 -25.421875 32.742188 -25.566406 33.328125 -25.671875 C 33.972656 -25.734375 34.613281 -25.789062 35.25 -25.84375 L 35.25 -26.484375 C 34.613281 -26.535156 33.972656 -26.640625 33.328125 -26.796875 C 32.742188 -26.898438 32.09375 -27.046875 31.375 -27.234375 C 30.664062 -27.421875 29.9375 -27.675781 29.1875 -28 L 6.0625 -38.28125 L 6.0625 -47.609375 L 41.78125 -31.265625 L 41.78125 -21.296875 L 6.0625 -4.9375 Z M 6.0625 -14.203125 "/></g></g></g></g></g></g><g transform="matrix(1, 0, 0, 1, 45, 128)"><g clip-path="url(#d-c7fcc11567)"><g clip-path="url(#d-2945051ac7)"><g fill="#ffffff" fill-opacity="1"><g transform="translate(0.51041, 78.661882)"><g><path d="M 36.125 -61.8125 L 44.8125 -61.8125 L 38.4375 -37 L 25.765625 -37 Z M 3.828125 -37 L 14.203125 -61.8125 L 22.890625 -61.8125 L 16.515625 -37 Z M 3.828125 -37 "/></g></g></g></g></g></g><g transform="matrix(1, 0, 0, 1, 160, 133)"><g clip-path="url(#d-eb63ee0987)"><g fill="#ffffff" fill-opacity="1"><g transform="translate(0.193204, 78.461772)"><g><path d="M 4.859375 -27.515625 C 4.859375 -30.171875 5.21875 -32.546875 5.9375 -34.640625 C 6.65625 -36.742188 7.675781 -38.539062 9 -40.03125 C 10.332031 -41.519531 11.929688 -42.660156 13.796875 -43.453125 C 15.660156 -44.253906 17.707031 -44.65625 19.9375 -44.65625 C 23.125 -44.65625 25.753906 -43.910156 27.828125 -42.421875 C 29.898438 -40.929688 31.175781 -38.882812 31.65625 -36.28125 L 32.453125 -36.28125 C 32.398438 -37.1875 32.347656 -38.09375 32.296875 -39 C 32.191406 -39.789062 32.125 -40.625 32.09375 -41.5 C 32.070312 -42.382812 32.0625 -43.171875 32.0625 -43.859375 L 32.0625 -58.21875 L 42.03125 -58.21875 L 42.03125 0 L 32.453125 0 L 32.453125 -7.65625 L 31.65625 -7.65625 C 31.175781 -5 29.898438 -2.925781 27.828125 -1.4375 C 25.753906 0.0507812 23.125 0.796875 19.9375 0.796875 C 17.707031 0.796875 15.660156 0.398438 13.796875 -0.390625 C 11.929688 -1.191406 10.332031 -2.347656 9 -3.859375 C 7.675781 -5.378906 6.65625 -7.210938 5.9375 -9.359375 C 5.21875 -11.515625 4.859375 -13.925781 4.859375 -16.59375 Z M 23.53125 -7.890625 C 26.132812 -7.890625 28.207031 -8.6875 29.75 -10.28125 C 31.289062 -11.882812 32.0625 -13.988281 32.0625 -16.59375 L 32.0625 -27.28125 C 32.0625 -29.9375 31.273438 -32.0625 29.703125 -33.65625 C 28.140625 -35.25 26.082031 -36.046875 23.53125 -36.046875 C 20.8125 -36.046875 18.679688 -35.257812 17.140625 -33.6875 C 15.597656 -32.125 14.828125 -29.988281 14.828125 -27.28125 L 14.828125 -16.828125 C 14.828125 -14.117188 15.597656 -11.953125 17.140625 -10.328125 C 18.679688 -8.703125 20.8125 -7.890625 23.53125 -7.890625 Z M 23.53125 -7.890625 "/></g></g></g><g fill="#ffffff" fill-opacity="1"><g transform="translate(42.05726, 78.461772)"><g><path d="M 7.578125 -43.859375 L 16.984375 -43.859375 L 16.984375 -36.28125 L 17.703125 -36.28125 C 18.234375 -38.945312 19.5625 -41.007812 21.6875 -42.46875 C 23.8125 -43.925781 26.523438 -44.65625 29.828125 -44.65625 C 34.554688 -44.65625 38.25 -43.191406 40.90625 -40.265625 C 43.570312 -37.347656 44.90625 -33.3125 44.90625 -28.15625 L 44.90625 -24.96875 L 34.453125 -24.96875 L 34.453125 -27.28125 C 34.453125 -30.09375 33.679688 -32.28125 32.140625 -33.84375 C 30.597656 -35.414062 28.472656 -36.203125 25.765625 -36.203125 C 23.210938 -36.203125 21.203125 -35.40625 19.734375 -33.8125 C 18.273438 -32.21875 17.546875 -30.039062 17.546875 -27.28125 L 17.546875 0 L 7.578125 0 Z M 7.578125 -43.859375 "/></g></g></g><g fill="#ffffff" fill-opacity="1"><g transform="translate(83.921316, 78.461772)"><g><path d="M 6.625 -9.09375 L 22.328125 -9.09375 L 22.328125 -34.84375 L 8.609375 -34.84375 L 8.609375 -43.859375 L 31.90625 -43.859375 L 31.90625 -9.09375 L 44.578125 -9.09375 L 44.578125 0 L 6.625 0 Z M 19.453125 -55.75 C 19.453125 -57.289062 19.96875 -58.550781 21 -59.53125 C 22.039062 -60.519531 23.414062 -61.015625 25.125 -61.015625 L 27.1875 -61.015625 C 28.894531 -61.015625 30.265625 -60.519531 31.296875 -59.53125 C 32.335938 -58.550781 32.859375 -57.289062 32.859375 -55.75 C 32.859375 -54.15625 32.328125 -52.878906 31.265625 -51.921875 C 30.203125 -50.960938 28.816406 -50.484375 27.109375 -50.484375 L 25.125 -50.484375 C 23.414062 -50.484375 22.039062 -50.960938 21 -51.921875 C 19.96875 -52.878906 19.453125 -54.15625 19.453125 -55.75 Z M 19.453125 -55.75 "/></g></g></g><g fill="#ffffff" fill-opacity="1"><g transform="translate(125.785371, 78.461772)"><g><path d="M 4.3125 -30.46875 L 4.3125 -39.46875 L 16.34375 -39.46875 L 16.34375 -45.703125 C 16.34375 -49.523438 17.601562 -52.566406 20.125 -54.828125 C 22.65625 -57.085938 26.050781 -58.21875 30.3125 -58.21875 L 43.140625 -58.21875 L 43.140625 -49.4375 L 30.546875 -49.4375 C 29.265625 -49.4375 28.25 -49.078125 27.5 -48.359375 C 26.757812 -47.648438 26.390625 -46.679688 26.390625 -45.453125 L 26.390625 -39.46875 L 43.140625 -39.46875 L 43.140625 -30.46875 L 26.390625 -30.46875 L 26.390625 0 L 16.34375 0 L 16.34375 -30.46875 Z M 4.3125 -30.46875 "/></g></g></g><g fill="#ffffff" fill-opacity="1"><g transform="translate(167.649427, 78.461772)"><g><path d="M 3.59375 -43.859375 L 15.703125 -43.859375 L 15.703125 -57.421875 L 25.671875 -57.421875 L 25.671875 -43.859375 L 42.34375 -43.859375 L 42.34375 -34.84375 L 25.671875 -34.84375 L 25.671875 -13.5625 C 25.671875 -12.175781 26.082031 -11.070312 26.90625 -10.25 C 27.738281 -9.425781 28.898438 -9.015625 30.390625 -9.015625 L 41.546875 -9.015625 L 41.546875 0 L 29.671875 0 C 25.359375 0 21.953125 -1.222656 19.453125 -3.671875 C 16.953125 -6.117188 15.703125 -9.414062 15.703125 -13.5625 L 15.703125 -34.84375 L 3.59375 -34.84375 Z M 3.59375 -43.859375 "/></g></g></g></g></g></svg>
